<svg xmlns="http://www.w3.org/2000/svg" xmlns:xlink="http://www.w3.org/1999/xlink" version="1.1" viewBox="598 0 304 78"><svg xml:space="preserve" width="1500" height="78" data-version="2" data-id="lg_pF22qoYTrrDq6uGy6F" viewBox="0 0 304 78" x="0" y="0"><rect width="100%" height="100%" fill="transparent"/><path fill="#d9ff05" d="M90.79 35.795V3.685h4.88v32.11Zm-8.05-32.11h20.93v4.14H82.74Zm0 27.97h20.93v4.14H82.74Z"/><rect width="20.93" height="32.11" x="-10.46" y="-16.05" fill="none" rx="0" ry="0" transform="translate(93.7 20.24)"/><path fill="#d9ff05" d="M127.92 35.795v-15.96q0-2.67-1.52-4.3-1.52-1.64-3.96-1.64-2.8 0-4.99 2.05-2.18 2.05-3.47 6.37l-.74-5.2q1.43-3.59 4.12-5.38 2.69-1.79 5.86-1.79 2.86 0 4.95 1.22 2.09 1.21 3.24 3.38 1.15 2.16 1.15 5.1v16.15Zm-18.04 0v-25.3h4.42l.23 5.7v19.6Z"/><rect width="22.68" height="25.85" x="-11.34" y="-12.93" fill="none" rx="0" ry="0" transform="translate(121.72 23.37)"/><path fill="#d9ff05" d="M147.65 9.945q2.62 0 4.78 1.03 2.17 1.04 3.5 2.88V1.985h4.6v33.81h-4.37l-.14-3.54q-1.33 1.84-3.52 2.96-2.18 1.13-4.85 1.13-3.36 0-5.93-1.7-2.58-1.7-4.03-4.69-1.45-2.99-1.45-6.81 0-3.87 1.45-6.86t4.03-4.66q2.57-1.68 5.93-1.68m1.01 22.49q2.49 0 4.42-1.4 1.93-1.41 2.85-3.8v-8.23q-.92-2.44-2.85-3.8-1.93-1.35-4.42-1.35-2.3 0-4.05 1.17-1.74 1.17-2.73 3.27-.99 2.09-.99 4.85 0 2.71.99 4.81.99 2.09 2.73 3.28 1.75 1.2 4.05 1.2"/><rect width="24.29" height="34.36" x="-12.14" y="-17.18" fill="none" rx="0" ry="0" transform="translate(148.88 19.66)"/><path fill="#d9ff05" d="M174.79 35.795v-25.3h4.65v25.3Zm-9.34 0v-3.77h22.68v3.77Zm3.36-21.53v-3.77h8.28v3.77Zm5.66-8.1v-5.01h5.2v5.01Z"/><rect width="22.68" height="34.64" x="-11.34" y="-17.32" fill="none" rx="0" ry="0" transform="translate(177.29 18.98)"/><path fill="#d9ff05" d="m211.36 35.795-.18-5.75v-10.81q0-2.72-1.78-4.26-1.77-1.54-4.85-1.54-2.99 0-4.87 1.36-1.89 1.36-2.07 3.75h-4.56q.23-2.72 1.75-4.62 1.52-1.91 4.05-2.95 2.53-1.03 5.84-1.03 3.4 0 5.89 1.12 2.48 1.13 3.84 3.25 1.36 2.11 1.36 5.15v16.33Zm-9.15.55q-2.49 0-4.37-.9-1.89-.89-2.95-2.57-1.06-1.68-1.06-3.94 0-3.91 3.02-6.07 3.01-2.16 8.44-2.16h6.48v3.45h-6.67q-3.12 0-4.9 1.2-1.77 1.19-1.77 3.35 0 1.8 1.27 2.81 1.26 1.01 3.43 1.01 2.76 0 4.89-1.49 2.14-1.5 3.48-4.12l.5 3.4q-1.19 2.9-3.68 4.47-2.48 1.56-6.11 1.56"/><rect width="22.73" height="26.4" x="-11.37" y="-13.2" fill="none" rx="0" ry="0" transform="translate(204.91 23.64)"/><path fill="#d9ff05" d="M258.05 35.795V3.685h4.88v32.11ZM250 3.685h20.93v4.14H250Zm0 27.97h20.93v4.14H250Z"/><rect width="20.93" height="32.11" x="-10.46" y="-16.05" fill="none" rx="0" ry="0" transform="translate(260.96 20.24)"/><path fill="#d9ff05" d="M295.17 35.795v-15.96q0-2.67-1.52-4.3-1.51-1.64-3.95-1.64-2.81 0-4.99 2.05-2.19 2.05-3.48 6.37l-.73-5.2q1.42-3.59 4.11-5.38 2.7-1.79 5.87-1.79 2.85 0 4.94 1.22 2.1 1.21 3.25 3.38 1.15 2.16 1.15 5.1v16.15Zm-18.03 0v-25.3h4.42l.23 5.7v19.6Z"/><rect width="22.68" height="25.85" x="-11.34" y="-12.93" fill="none" rx="0" ry="0" transform="translate(288.98 23.37)"/><path fill="#d9ff05" d="M85.69 61.865v-4.14h8.14q2.02 0 3.56-.67 1.55-.66 2.44-1.91.9-1.24.9-2.85 0-1.56-.78-2.67-.78-1.1-2.12-1.7-1.33-.6-2.99-.6h-9.15v-4.14h9.15q3.18 0 5.66 1.09 2.48 1.08 3.91 3.1 1.43 2.02 1.43 4.92 0 1.84-.86 3.54-.85 1.71-2.43 3.06-1.59 1.36-3.84 2.17-2.26.8-5.11.8Zm-3.5 13.43v-32.11h4.88v32.11Zm18.45 0q-.28-2.16-1.18-4.28-.89-2.11-2.41-4.04-1.52-1.94-3.75-3.59-2.23-1.66-5.17-2.99l5.42-1.2q3.04 1.52 5.22 3.38 2.19 1.87 3.64 3.94 1.45 2.07 2.21 4.27.76 2.21.99 4.51Z"/><rect width="23.65" height="32.11" x="-11.82" y="-16.05" fill="none" rx="0" ry="0" transform="translate(94.51 59.74)"/><path fill="#d9ff05" d="M121.38 75.845q-3.91 0-6.76-1.58-2.85-1.59-4.37-4.56-1.52-2.96-1.52-7.1t1.54-7.09q1.55-2.94 4.42-4.51 2.88-1.56 6.88-1.56 6.12 0 9.11 3.38 2.99 3.38 2.62 9.27h-20.89l.05-3.5 16.1.05q-.18-2.44-2.12-3.91-1.93-1.47-4.87-1.47-3.96 0-6.07 2.48-2.12 2.49-2.12 7.04 0 2.71.94 4.81.95 2.09 2.74 3.24 1.79 1.15 4.32 1.15 2.99 0 4.99-1.43 2.01-1.42 2.47-3.86h4.64q-.6 4.28-3.82 6.72-3.22 2.43-8.28 2.43"/><rect width="24.75" height="26.4" x="-12.38" y="-13.2" fill="none" rx="0" ry="0" transform="translate(121.6 63.15)"/><path fill="#d9ff05" d="M149.67 75.845q-3.35 0-5.91-1.17-2.55-1.17-3.93-3.31-1.38-2.14-1.43-5.13h4.37q0 2.81 1.89 4.42 1.89 1.61 4.97 1.61 2.62 0 4.21-.99 1.58-.99 1.58-2.69 0-1.34-.89-2.14-.9-.81-2.37-1.27-1.47-.46-3.25-.8-1.77-.35-3.54-.83t-3.24-1.24q-1.47-.76-2.39-2.05-.92-1.29-.92-3.36 0-2.16 1.24-3.84 1.24-1.68 3.52-2.64 2.28-.97 5.4-.97 4.74 0 7.62 2.19 2.87 2.18 3.1 6h-4.37q-.14-2.21-1.82-3.43-1.67-1.22-4.53-1.22-2.66 0-4.07 1.06-1.4 1.06-1.4 2.67 0 1.24.92 1.95.92.72 2.39 1.11 1.47.39 3.24.69 1.78.3 3.55.76 1.77.46 3.24 1.26 1.47.81 2.37 2.19.9 1.38.9 3.58 0 3.55-2.86 5.57-2.85 2.02-7.59 2.02"/><rect width="21.72" height="26.4" x="-10.86" y="-13.2" fill="none" rx="0" ry="0" transform="translate(149.76 63.15)"/><path fill="#d9ff05" d="M177.14 75.845q-3.91 0-6.77-1.58-2.85-1.59-4.37-4.56-1.51-2.96-1.51-7.1t1.54-7.09q1.54-2.94 4.41-4.51 2.88-1.56 6.88-1.56 6.12 0 9.11 3.38 2.99 3.38 2.62 9.27h-20.88l.04-3.5 16.1.05q-.18-2.44-2.11-3.91-1.94-1.47-4.88-1.47-3.96 0-6.07 2.48-2.12 2.49-2.12 7.04 0 2.71.94 4.81.95 2.09 2.74 3.24 1.8 1.15 4.33 1.15 2.99 0 4.99-1.43 2-1.42 2.46-3.86h4.64q-.59 4.28-3.81 6.72-3.22 2.43-8.28 2.43"/><rect width="24.74" height="26.4" x="-12.37" y="-13.2" fill="none" rx="0" ry="0" transform="translate(177.36 63.15)"/><path fill="#d9ff05" d="m211.36 75.295-.18-5.75v-10.81q0-2.71-1.78-4.25-1.77-1.54-4.85-1.54-2.99 0-4.87 1.35-1.89 1.36-2.07 3.75h-4.56q.23-2.71 1.75-4.62 1.52-1.91 4.05-2.94 2.53-1.04 5.84-1.04 3.4 0 5.89 1.13 2.48 1.12 3.84 3.24 1.36 2.12 1.36 5.15v16.33Zm-9.15.55q-2.49 0-4.37-.89-1.89-.9-2.95-2.58-1.06-1.68-1.06-3.93 0-3.91 3.02-6.07 3.01-2.17 8.44-2.17h6.48v3.45h-6.67q-3.12 0-4.9 1.2-1.77 1.2-1.77 3.36 0 1.79 1.27 2.8 1.26 1.02 3.43 1.02 2.76 0 4.89-1.5 2.14-1.49 3.48-4.12l.5 3.41q-1.19 2.9-3.68 4.46-2.48 1.56-6.11 1.56"/><rect width="22.73" height="26.4" x="-11.37" y="-13.2" fill="none" rx="0" ry="0" transform="translate(204.91 63.15)"/><path fill="#d9ff05" d="M239.51 60.855v-3.04q0-1.98-1.19-3.19-1.2-1.22-3.45-1.22-2.86 0-5.11 2.14-2.25 2.13-3.59 6.5l-.64-4.69q1.01-2.62 2.46-4.37t3.36-2.64q1.91-.9 4.21-.9 3.81 0 6.21 2.19 2.39 2.18 2.39 6.18v3.04Zm-17.11 14.44v-25.3h4.37l.28 5.75v19.55Z"/><rect width="21.76" height="25.85" x="-10.88" y="-12.93" fill="none" rx="0" ry="0" transform="translate(233.78 62.87)"/><path fill="#d9ff05" d="M261.22 75.845q-3.91 0-6.78-1.63-2.88-1.63-4.44-4.6-1.56-2.97-1.56-6.97 0-4.09 1.61-7.06 1.61-2.97 4.5-4.55 2.9-1.59 6.77-1.59 3.08 0 5.54 1.13 2.46 1.12 4 3.19t1.77 4.93h-4.64q-.37-2.58-2.19-3.98-1.82-1.41-4.48-1.41-2.49 0-4.33 1.13-1.84 1.13-2.85 3.2-1.01 2.07-1.01 5.01 0 4.37 2.23 6.86 2.23 2.48 5.86 2.48 1.66 0 3.09-.64 1.42-.65 2.43-1.87 1.02-1.22 1.38-2.83h4.7q-.46 2.86-2.1 4.9-1.63 2.05-4.09 3.18-2.46 1.12-5.41 1.12"/><rect width="24.38" height="26.4" x="-12.19" y="-13.2" fill="none" rx="0" ry="0" transform="translate(261.13 63.15)"/><path fill="#d9ff05" d="M295.17 75.295v-15.91q0-2.72-1.52-4.35-1.51-1.63-3.95-1.63-2.81 0-4.99 2.04-2.19 2.05-3.48 6.37l-.73-5.15q1.42-3.63 4.11-5.43 2.7-1.79 5.87-1.79 2.85 0 4.94 1.22 2.1 1.22 3.25 3.4 1.15 2.19 1.15 5.13v16.1Zm-18.03 0v-33.85h4.65v33.85Z"/><rect width="22.68" height="33.85" x="-11.34" y="-16.93" fill="none" rx="0" ry="0" transform="translate(288.98 58.87)"/><ellipse fill="none" stroke="#d9ff05" stroke-width="7" paint-order="stroke" rx="140.58" ry="68" transform="matrix(.1469 .14683 -.16613 .1662 36.2 41.95)"/><path fill="#d9ff05" d="m35.976 13.16 2.157-3.933.485 4.458 3.499-2.808-1.258 4.307 4.307-1.258-2.808 3.499 4.458.485-3.932 2.157 3.932 2.157-4.458.485 2.808 3.499-4.307-1.258 1.258 4.307-3.499-2.808-.485 4.458-2.157-3.932-2.157 3.932-.485-4.458-3.499 2.808 1.258-4.307-4.307 1.258 2.808-3.499-4.458-.485 3.932-2.157-3.932-2.157 4.458-.485-2.808-3.499 4.307 1.258-1.258-4.307 3.499 2.808.485-4.458z"/></svg></svg>